# xmcd CD database file
#
# Track frame offsets:
#	150
#	20932
#	43095
#	65460
#	86927
#	99615
#	127327
#	150760
#	173095
#	188302
#
# Disc length: 2817 seconds
#
# Revision: 0
# Processed by: cddbd v1.5.1PL0 Copyright (c) Steve Scherf et al.
# Submitted via: CDex 1.51
#
DISCID=810aff0a
DTITLE=柚楽弥衣 - SUMMER AURA
DYEAR=1999
DGENRE=Pop
TTITLE0=SUMMER AURA
TTITLE1=イサハヤ
TTITLE2=トリートメント
TTITLE3=ドラる
TTITLE4=永遠
TTITLE5=糸の見る夢
TTITLE6=天風
TTITLE7=このまま.......。
TTITLE8=フィルムは回る． ピアノ練習編
TTITLE9=少年達へ
EXTD=YEAR: 1999
EXTT0=
EXTT1=
EXTT2=
EXTT3=
EXTT4=
EXTT5=
EXTT6=
EXTT7=
EXTT8=
EXTT9=
PLAYORDER=
